<?xml version="1.0" encoding="utf-8"?>
<!-- Generator: Adobe Illustrator 27.5.0, SVG Export Plug-In . SVG Version: 6.00 Build 0)  -->
<svg version="1.1" id="Layer_1" xmlns="http://www.w3.org/2000/svg" xmlns:xlink="http://www.w3.org/1999/xlink" x="0px" y="0px"
	 viewBox="0 0 160 40" style="enable-background:new 0 0 160 40;" xml:space="preserve">
<style type="text/css">
	.st0{fill:#DC4048;}
	.st1{fill:#F6854A;}
	.st2{fill:#FFC04B;}
	.st3{fill:#FFE069;}
	.st4{fill:#FFFFFF;}
	.st5{fill:#576166;}
</style>
<g>
	<g>
		<rect x="13.5" y="13.5" transform="matrix(6.123234e-17 -1 1 6.123234e-17 -13.5 49.5)" class="st0" width="9" height="36"/>
		<rect x="15.5" y="4.5" transform="matrix(6.123234e-17 -1 1 6.123234e-17 -2.5 42.5)" class="st1" width="9" height="36"/>
		<rect x="13.5" y="-4.5" transform="matrix(6.123234e-17 -1 1 6.123234e-17 4.5 31.5)" class="st2" width="9" height="36"/>
		<rect x="15.5" y="-13.5" transform="matrix(6.123234e-17 -1 1 6.123234e-17 15.5 24.5)" class="st3" width="9" height="36"/>
		<path class="st4" d="M25.79,14.43H22.5l2.22-3.85C26.82,6.94,25.57,4,21.94,4H11.41v28h10.81l6.35-11
			C30.67,17.37,29.42,14.43,25.79,14.43z"/>
	</g>
	<g>
		<path class="st5" d="M47.71,11.06h5.08v8.06c0.44-0.44,0.98-0.81,1.6-1.09c0.62-0.29,1.41-0.43,2.36-0.43
			c1.02,0,1.94,0.2,2.76,0.59c0.83,0.39,1.53,0.94,2.11,1.65c0.58,0.71,1.03,1.55,1.35,2.52c0.32,0.97,0.48,2.04,0.48,3.2
			c0,1.12-0.19,2.18-0.56,3.19c-0.37,1-0.93,1.88-1.67,2.62c-0.74,0.74-1.67,1.33-2.79,1.76c-1.12,0.43-2.43,0.65-3.93,0.65
			c-1.27,0-2.48-0.14-3.63-0.41c-1.15-0.27-2.21-0.66-3.16-1.14V11.06z M55.29,21.47c-0.95,0-1.79,0.29-2.51,0.86v7.36
			c0.23,0.11,0.51,0.19,0.83,0.25c0.32,0.06,0.64,0.1,0.98,0.1c0.66,0,1.23-0.12,1.71-0.35c0.49-0.23,0.88-0.55,1.17-0.95
			c0.3-0.4,0.52-0.87,0.67-1.4c0.15-0.53,0.22-1.1,0.22-1.71c0-1.27-0.25-2.28-0.75-3.03C57.13,21.85,56.35,21.47,55.29,21.47z"/>
		<path class="st5" d="M81.02,25.69c0,1.14-0.18,2.21-0.54,3.19c-0.36,0.98-0.89,1.84-1.59,2.57s-1.57,1.3-2.6,1.71
			c-1.04,0.41-2.22,0.62-3.55,0.62c-1.33,0-2.52-0.21-3.55-0.62c-1.04-0.41-1.9-0.98-2.6-1.71c-0.7-0.73-1.23-1.59-1.59-2.57
			c-0.36-0.98-0.54-2.05-0.54-3.19c0-1.14,0.18-2.21,0.54-3.19c0.36-0.98,0.89-1.84,1.59-2.57c0.7-0.73,1.57-1.3,2.6-1.71
			c1.04-0.41,2.22-0.62,3.55-0.62c1.33,0,2.52,0.21,3.55,0.62c1.04,0.41,1.9,0.98,2.6,1.71s1.23,1.59,1.59,2.57
			C80.84,23.48,81.02,24.55,81.02,25.69z M75.95,25.69c0-0.55-0.05-1.08-0.16-1.6c-0.11-0.52-0.28-0.98-0.52-1.4
			c-0.24-0.41-0.57-0.74-0.98-0.98c-0.41-0.24-0.93-0.36-1.54-0.36c-0.61,0-1.13,0.12-1.54,0.36c-0.41,0.24-0.74,0.57-0.98,0.98
			c-0.24,0.41-0.42,0.88-0.52,1.4c-0.11,0.52-0.16,1.05-0.16,1.6c0,0.55,0.05,1.08,0.16,1.6c0.11,0.52,0.28,0.98,0.52,1.4
			c0.24,0.41,0.57,0.74,0.98,0.98c0.41,0.24,0.93,0.36,1.54,0.36c0.61,0,1.13-0.12,1.54-0.36c0.41-0.24,0.74-0.57,0.98-0.98
			c0.24-0.41,0.42-0.88,0.52-1.4C75.89,26.77,75.95,26.24,75.95,25.69z"/>
		<path class="st5" d="M92.89,22.29h-0.6c-2.01,0-3.43,0.51-4.25,1.52v9.65h-5.08V17.92h4.92v2.6c0.3-0.85,0.75-1.51,1.36-2
			c0.61-0.49,1.42-0.73,2.41-0.73c0.3,0,0.54,0.02,0.75,0.05c0.2,0.03,0.41,0.08,0.62,0.14L92.89,22.29z"/>
		<path class="st5" d="M108.91,33.46h-4.85v-1.95c-0.49,0.69-1.12,1.24-1.89,1.65c-0.77,0.41-1.7,0.61-2.78,0.61
			c-0.87,0-1.68-0.19-2.44-0.56s-1.42-0.9-1.98-1.59c-0.56-0.69-1-1.52-1.32-2.49c-0.32-0.97-0.48-2.06-0.48-3.27
			c0-1.35,0.22-2.55,0.65-3.59c0.43-1.04,1.02-1.9,1.75-2.6c0.73-0.7,1.58-1.22,2.55-1.57c0.97-0.35,2.01-0.52,3.11-0.52
			c0.55,0,1.04,0.04,1.46,0.11c0.42,0.07,0.8,0.16,1.14,0.27v-6.92h5.08V33.46z M101.24,29.91c1.08,0,1.95-0.36,2.6-1.08v-7.17
			c-0.47-0.17-1.07-0.25-1.81-0.25c-1.27,0-2.22,0.39-2.84,1.18c-0.62,0.79-0.94,1.86-0.94,3.22c0,1.21,0.24,2.2,0.71,2.96
			C99.44,29.53,100.2,29.91,101.24,29.91z"/>
		<path class="st5" d="M111.61,13.38c0-0.8,0.26-1.48,0.79-2.03c0.53-0.55,1.22-0.82,2.06-0.82c0.85,0,1.53,0.28,2.06,0.82
			c0.53,0.55,0.79,1.23,0.79,2.03c0,0.8-0.26,1.48-0.79,2.03c-0.53,0.55-1.22,0.82-2.06,0.82c-0.85,0-1.53-0.27-2.06-0.82
			C111.88,14.86,111.61,14.18,111.61,13.38z M111.93,33.46V17.92h5.08v15.55H111.93z"/>
		<path class="st5" d="M120.02,17.92h4.85v1.84c1.02-1.44,2.57-2.16,4.66-2.16c0.87,0,1.68,0.19,2.44,0.56
			c0.76,0.37,1.42,0.9,1.98,1.59c0.56,0.69,1,1.52,1.32,2.49c0.32,0.97,0.48,2.06,0.48,3.27c0,1.38-0.22,2.58-0.65,3.6
			c-0.43,1.03-1.02,1.89-1.75,2.59s-1.58,1.22-2.55,1.57c-0.97,0.35-2.01,0.52-3.11,0.52c-0.55,0-1.04-0.04-1.46-0.11
			c-0.42-0.07-0.8-0.16-1.14-0.27V40h-5.08V17.92z M127.7,21.5c-0.57,0-1.07,0.09-1.49,0.27c-0.42,0.18-0.79,0.45-1.11,0.81v7.2
			c0.23,0.08,0.5,0.15,0.79,0.19c0.3,0.04,0.63,0.06,1.02,0.06c1.33,0,2.3-0.41,2.89-1.22c0.59-0.81,0.89-1.91,0.89-3.28
			c0-1.14-0.24-2.1-0.71-2.87C129.49,21.89,128.73,21.5,127.7,21.5z"/>
		<path class="st5" d="M142.61,28.7c0,0.4,0.08,0.71,0.25,0.94c0.17,0.22,0.5,0.33,0.98,0.33c0.3,0,0.66-0.03,1.08-0.09l0.16,3.49
			c-0.42,0.13-0.9,0.23-1.44,0.3c-0.54,0.07-1.09,0.11-1.67,0.11c-0.85,0-1.55-0.13-2.13-0.38c-0.57-0.25-1.03-0.59-1.36-1.02
			c-0.34-0.42-0.58-0.9-0.73-1.44c-0.15-0.54-0.22-1.09-0.22-1.67V11.06h5.08V28.7z"/>
		<path class="st5" d="M153.4,17.6c2.03,0,3.64,0.6,4.82,1.79c1.18,1.2,1.78,2.85,1.78,4.97c0,0.8-0.1,1.66-0.29,2.57h-9.01
			c0.04,0.95,0.37,1.72,0.97,2.3c0.6,0.58,1.53,0.87,2.78,0.87c0.76,0,1.56-0.07,2.4-0.21c0.84-0.14,1.56-0.34,2.17-0.62l0.63,3.27
			c-0.8,0.4-1.71,0.71-2.71,0.92c-1,0.21-2.05,0.32-3.13,0.32c-1.35,0-2.55-0.2-3.59-0.59c-1.04-0.39-1.9-0.94-2.6-1.63
			c-0.7-0.7-1.23-1.53-1.59-2.51c-0.36-0.97-0.54-2.05-0.54-3.24c0-1.27,0.18-2.41,0.56-3.43c0.37-1.02,0.9-1.88,1.59-2.59
			c0.69-0.71,1.52-1.25,2.49-1.63C151.1,17.79,152.19,17.6,153.4,17.6z M153.24,20.83c-0.8,0-1.42,0.26-1.86,0.78
			c-0.43,0.52-0.65,1.23-0.65,2.14h4.51c0.04-0.17,0.06-0.35,0.06-0.54c0-0.68-0.18-1.24-0.54-1.7
			C154.4,21.06,153.9,20.83,153.24,20.83z"/>
	</g>
</g>
</svg>
