<?xml version="1.0" encoding="utf-8"?>
<!-- Generator: Adobe Illustrator 27.5.0, SVG Export Plug-In . SVG Version: 6.00 Build 0)  -->
<svg version="1.1" id="Layer_1" xmlns="http://www.w3.org/2000/svg" xmlns:xlink="http://www.w3.org/1999/xlink" x="0px" y="0px"
	 viewBox="0 0 150 30" style="enable-background:new 0 0 150 30;" xml:space="preserve">
<style type="text/css">
	.st0{display:none;}
	.st1{display:inline;fill:#DC4048;}
	.st2{display:inline;fill:#F6854A;}
	.st3{display:inline;fill:#FFC04B;}
	.st4{display:inline;fill:#FFE069;}
	.st5{display:inline;fill:#FFFFFF;}
	.st6{fill:#576166;}
	.st7{fill:#FFE069;}
	.st8{fill:#FFC04B;}
	.st9{fill:#F6854A;}
	.st10{fill:#DC4048;}
</style>
<g class="st0">
	<rect x="8.5" y="8.5" transform="matrix(6.123234e-17 -1 1 6.123234e-17 -13.5 39.5)" class="st1" width="9" height="36"/>
	<rect x="10.5" y="-0.5" transform="matrix(6.123234e-17 -1 1 6.123234e-17 -2.5 32.5)" class="st2" width="9" height="36"/>
	<rect x="8.5" y="-9.5" transform="matrix(6.123234e-17 -1 1 6.123234e-17 4.5 21.5)" class="st3" width="9" height="36"/>
	<rect x="10.5" y="-18.5" transform="matrix(6.123234e-17 -1 1 6.123234e-17 15.5 14.5)" class="st4" width="9" height="36"/>
	<path class="st5" d="M20.79,9.43H17.5l2.22-3.85C21.82,1.94,20.57-1,16.94-1H6.41v28h10.81l6.35-11
		C25.67,12.37,24.42,9.43,20.79,9.43z"/>
</g>
<g>
	<g>
		<path class="st6" d="M37.71,3.8h5.08v8.06c0.44-0.44,0.98-0.81,1.6-1.09c0.62-0.29,1.41-0.43,2.36-0.43c1.02,0,1.94,0.2,2.76,0.59
			c0.83,0.39,1.53,0.94,2.11,1.65c0.58,0.71,1.03,1.55,1.35,2.52c0.32,0.97,0.48,2.04,0.48,3.2c0,1.12-0.19,2.18-0.56,3.19
			c-0.37,1-0.93,1.88-1.67,2.62c-0.74,0.74-1.67,1.33-2.79,1.76c-1.12,0.43-2.43,0.65-3.93,0.65c-1.27,0-2.48-0.14-3.63-0.41
			c-1.15-0.27-2.21-0.66-3.16-1.14V3.8z M45.29,14.21c-0.95,0-1.79,0.29-2.51,0.86v7.36c0.23,0.11,0.51,0.19,0.83,0.25
			c0.32,0.06,0.64,0.1,0.98,0.1c0.66,0,1.23-0.12,1.71-0.35c0.49-0.23,0.88-0.55,1.17-0.95c0.3-0.4,0.52-0.87,0.67-1.4
			c0.15-0.53,0.22-1.1,0.22-1.71c0-1.27-0.25-2.28-0.75-3.03C47.13,14.58,46.35,14.21,45.29,14.21z"/>
		<path class="st6" d="M71.02,18.43c0,1.14-0.18,2.21-0.54,3.19c-0.36,0.98-0.89,1.84-1.59,2.57c-0.7,0.73-1.57,1.3-2.6,1.71
			c-1.04,0.41-2.22,0.62-3.55,0.62c-1.33,0-2.52-0.21-3.55-0.62c-1.04-0.41-1.9-0.98-2.6-1.71c-0.7-0.73-1.23-1.59-1.59-2.57
			c-0.36-0.98-0.54-2.05-0.54-3.19c0-1.14,0.18-2.21,0.54-3.19c0.36-0.98,0.89-1.84,1.59-2.57c0.7-0.73,1.57-1.3,2.6-1.71
			c1.04-0.41,2.22-0.62,3.55-0.62c1.33,0,2.52,0.21,3.55,0.62c1.04,0.41,1.9,0.98,2.6,1.71c0.7,0.73,1.23,1.59,1.59,2.57
			C70.84,16.22,71.02,17.28,71.02,18.43z M65.95,18.43c0-0.55-0.05-1.08-0.16-1.6c-0.11-0.52-0.28-0.98-0.52-1.4
			c-0.24-0.41-0.57-0.74-0.98-0.98c-0.41-0.24-0.93-0.36-1.54-0.36c-0.61,0-1.13,0.12-1.54,0.36c-0.41,0.24-0.74,0.57-0.98,0.98
			c-0.24,0.41-0.42,0.88-0.52,1.4c-0.11,0.52-0.16,1.05-0.16,1.6c0,0.55,0.05,1.08,0.16,1.6c0.11,0.52,0.28,0.98,0.52,1.4
			c0.24,0.41,0.57,0.74,0.98,0.98c0.41,0.24,0.93,0.36,1.54,0.36c0.61,0,1.13-0.12,1.54-0.36c0.41-0.24,0.74-0.57,0.98-0.98
			c0.24-0.41,0.42-0.88,0.52-1.4C65.89,19.51,65.95,18.98,65.95,18.43z"/>
		<path class="st6" d="M82.89,15.03h-0.6c-2.01,0-3.43,0.51-4.25,1.52v9.65h-5.08V10.65h4.92v2.6c0.3-0.85,0.75-1.51,1.36-2
			c0.61-0.49,1.42-0.73,2.41-0.73c0.3,0,0.54,0.02,0.75,0.05c0.2,0.03,0.41,0.08,0.62,0.14L82.89,15.03z"/>
		<path class="st6" d="M98.91,26.2h-4.85v-1.95c-0.49,0.69-1.12,1.24-1.89,1.65c-0.77,0.41-1.7,0.61-2.78,0.61
			c-0.87,0-1.68-0.19-2.44-0.56s-1.42-0.9-1.98-1.59c-0.56-0.69-1-1.52-1.32-2.49c-0.32-0.97-0.48-2.06-0.48-3.27
			c0-1.35,0.22-2.55,0.65-3.59c0.43-1.04,1.02-1.9,1.75-2.6c0.73-0.7,1.58-1.22,2.55-1.57c0.97-0.35,2.01-0.52,3.11-0.52
			c0.55,0,1.04,0.04,1.46,0.11c0.42,0.07,0.8,0.16,1.14,0.27V3.8h5.08V26.2z M91.24,22.65c1.08,0,1.95-0.36,2.6-1.08V14.4
			c-0.47-0.17-1.07-0.25-1.81-0.25c-1.27,0-2.22,0.39-2.84,1.18c-0.62,0.79-0.94,1.86-0.94,3.22c0,1.21,0.24,2.2,0.71,2.96
			C89.44,22.27,90.2,22.65,91.24,22.65z"/>
		<path class="st6" d="M101.61,6.12c0-0.8,0.26-1.48,0.79-2.03c0.53-0.55,1.22-0.82,2.06-0.82c0.85,0,1.53,0.28,2.06,0.82
			c0.53,0.55,0.79,1.23,0.79,2.03c0,0.8-0.26,1.48-0.79,2.03c-0.53,0.55-1.22,0.82-2.06,0.82c-0.85,0-1.53-0.27-2.06-0.82
			C101.88,7.6,101.61,6.92,101.61,6.12z M101.93,26.2V10.65h5.08V26.2H101.93z"/>
		<path class="st6" d="M110.02,10.65h4.85v1.84c1.02-1.44,2.57-2.16,4.66-2.16c0.87,0,1.68,0.19,2.44,0.56
			c0.76,0.37,1.42,0.9,1.98,1.59c0.56,0.69,1,1.52,1.32,2.49c0.32,0.97,0.48,2.06,0.48,3.27c0,1.38-0.22,2.58-0.65,3.6
			c-0.43,1.03-1.02,1.89-1.75,2.59c-0.73,0.7-1.58,1.22-2.55,1.57c-0.97,0.35-2.01,0.52-3.11,0.52c-0.55,0-1.04-0.04-1.46-0.11
			c-0.42-0.07-0.8-0.16-1.14-0.27V30h-5.08V10.65z M117.7,14.24c-0.57,0-1.07,0.09-1.49,0.27c-0.42,0.18-0.79,0.45-1.11,0.81v7.2
			c0.23,0.08,0.5,0.15,0.79,0.19c0.3,0.04,0.63,0.06,1.02,0.06c1.33,0,2.3-0.41,2.89-1.22c0.59-0.81,0.89-1.91,0.89-3.28
			c0-1.14-0.24-2.1-0.71-2.87C119.49,14.62,118.73,14.24,117.7,14.24z"/>
		<path class="st6" d="M132.61,21.44c0,0.4,0.08,0.71,0.25,0.94c0.17,0.22,0.5,0.33,0.98,0.33c0.3,0,0.66-0.03,1.08-0.09l0.16,3.49
			c-0.42,0.13-0.9,0.23-1.44,0.3c-0.54,0.07-1.09,0.11-1.67,0.11c-0.85,0-1.55-0.13-2.13-0.38c-0.57-0.25-1.03-0.59-1.36-1.02
			c-0.34-0.42-0.58-0.9-0.73-1.44c-0.15-0.54-0.22-1.09-0.22-1.67V3.8h5.08V21.44z"/>
		<path class="st6" d="M143.4,10.34c2.03,0,3.64,0.6,4.82,1.79c1.18,1.2,1.78,2.85,1.78,4.97c0,0.8-0.1,1.66-0.29,2.57h-9.01
			c0.04,0.95,0.37,1.72,0.97,2.3c0.6,0.58,1.53,0.87,2.78,0.87c0.76,0,1.56-0.07,2.4-0.21c0.84-0.14,1.56-0.34,2.17-0.62l0.63,3.27
			c-0.8,0.4-1.71,0.71-2.71,0.92c-1,0.21-2.05,0.32-3.13,0.32c-1.35,0-2.55-0.2-3.59-0.59c-1.04-0.39-1.9-0.94-2.6-1.63
			c-0.7-0.7-1.23-1.53-1.59-2.51c-0.36-0.97-0.54-2.05-0.54-3.24c0-1.27,0.18-2.41,0.56-3.43c0.37-1.02,0.9-1.88,1.59-2.59
			c0.69-0.71,1.52-1.25,2.49-1.63C141.1,10.53,142.19,10.34,143.4,10.34z M143.24,13.57c-0.8,0-1.42,0.26-1.86,0.78
			c-0.43,0.52-0.65,1.23-0.65,2.14h4.51c0.04-0.17,0.06-0.35,0.06-0.54c0-0.68-0.18-1.24-0.54-1.7
			C144.4,13.8,143.9,13.57,143.24,13.57z"/>
	</g>
	<g>
		<path class="st7" d="M24,30H6c-3.31,0-6-2.69-6-6V6c0-3.31,2.69-6,6-6h18c3.31,0,6,2.69,6,6v18C30,27.31,27.31,30,24,30z"/>
		<path class="st8" d="M30,24V6C16.75,6,6,16.75,6,30h18C27.31,30,30,27.31,30,24z"/>
		<path class="st9" d="M30,24V14c-8.82,0-16,7.18-16,16h10C27.31,30,30,27.31,30,24z"/>
		<path class="st10" d="M30,24v-2c-4.41,0-8,3.59-8,8h2C27.31,30,30,27.31,30,24z"/>
	</g>
</g>
</svg>
